# Blender v2.90.1 OBJ File: ''
# www.blender.org
mtllib smallshopblock.mtl
o bottom
v 0.500000 0.062500 0.500000
v 0.500000 -0.000000 0.500000
v 0.500000 0.062500 0.000000
v 0.500000 0.000000 0.000000
v -0.500000 0.062500 0.000000
v -0.500000 0.000000 0.000000
v -0.500000 0.062500 0.500000
v -0.500000 -0.000000 0.500000
vt 0.000000 1.000000
vt 0.000000 0.875000
vt 0.250000 1.000000
vt 0.250000 0.875000
vt 0.000000 1.000000
vt 0.000000 0.875000
vt 0.250000 1.000000
vt 0.250000 0.875000
vt 0.000000 0.062500
vt 0.000000 0.000000
vt 1.000000 0.062500
vt 1.000000 0.000000
vt 0.000000 0.500000
vt 0.000000 0.000000
vt 1.000000 0.500000
vt 1.000000 0.000000
vt 0.000000 1.000000
vt 0.000000 0.750000
vt 0.500000 1.000000
vt 0.500000 0.750000
vt 0.000000 0.062500
vt 0.000000 0.000000
vt 1.000000 0.062500
vt 1.000000 0.000000
vn 1.0000 0.0000 0.0000
vn -1.0000 0.0000 0.0000
vn 0.0000 0.0000 1.0000
vn 0.0000 1.0000 0.0000
vn 0.0000 -1.0000 -0.0000
vn 0.0000 0.0000 -1.0000
usemtl m_3
s 1
f 1/1/1 2/2/1 3/3/1
f 2/2/1 4/4/1 3/3/1
f 5/5/2 6/6/2 7/7/2
f 6/6/2 8/8/2 7/7/2
f 7/9/3 8/10/3 1/11/3
f 8/10/3 2/12/3 1/11/3
usemtl m_2
f 5/13/4 7/14/4 3/15/4
f 7/14/4 1/16/4 3/15/4
usemtl none
f 8/17/5 6/18/5 2/19/5
f 6/18/5 4/20/5 2/19/5
usemtl m_1
f 3/21/6 4/22/6 5/23/6
f 4/22/6 6/24/6 5/23/6
o back
v 0.437500 0.937500 0.500000
v 0.437500 0.062500 0.500000
v 0.437500 0.937500 0.437500
v 0.437500 0.062500 0.437500
v -0.437500 0.937500 0.437500
v -0.437500 0.062500 0.437500
v -0.437500 0.937500 0.500000
v -0.437500 0.062500 0.500000
vt 0.000000 1.000000
vt 0.000000 0.562500
vt 0.031250 1.000000
vt 0.031250 0.562500
vt 0.000000 1.000000
vt 0.000000 0.562500
vt 0.031250 1.000000
vt 0.031250 0.562500
vt 0.000000 0.968750
vt 0.437500 1.000000
vt 0.437500 0.968750
vt 0.000000 1.000000
vt 0.000000 0.968750
vt 0.437500 1.000000
vt 0.437500 0.968750
vt 0.000000 1.000000
vt 0.000000 0.562500
vt 0.437500 1.000000
vt 0.437500 0.562500
vt 0.062500 0.937500
vt 0.062500 0.062500
vt 0.937500 0.937500
vt 0.937500 0.062500
vn 1.0000 0.0000 0.0000
vn -1.0000 0.0000 0.0000
vn 0.0000 1.0000 0.0000
vn 0.0000 -1.0000 -0.0000
vn 0.0000 0.0000 -1.0000
vn 0.0000 -0.0000 1.0000
usemtl none
s 1
f 9/25/7 10/26/7 11/27/7
f 10/26/7 12/28/7 11/27/7
f 13/29/8 14/30/8 15/31/8
f 14/30/8 16/32/8 15/31/8
f 13/29/9 15/33/9 11/34/9
f 15/33/9 9/35/9 11/34/9
f 16/36/10 14/37/10 10/38/10
f 14/37/10 12/39/10 10/38/10
f 11/40/11 12/41/11 13/42/11
f 12/41/11 14/43/11 13/42/11
usemtl m_3
f 15/44/12 16/45/12 9/46/12
f 16/45/12 10/47/12 9/46/12
o middle
v 0.437500 0.937500 0.312500
v 0.437500 0.062500 0.312500
v 0.437500 0.937500 0.250000
v 0.437500 0.062500 0.250000
v -0.437500 0.937500 0.250000
v -0.437500 0.062500 0.250000
v -0.437500 0.937500 0.312500
v -0.437500 0.062500 0.312500
vt 0.000000 1.000000
vt 0.000000 0.562500
vt 0.031250 1.000000
vt 0.031250 0.562500
vt 0.000000 1.000000
vt 0.000000 0.562500
vt 0.031250 1.000000
vt 0.031250 0.562500
vt 0.000000 0.968750
vt 0.437500 1.000000
vt 0.437500 0.968750
vt 0.000000 1.000000
vt 0.000000 0.968750
vt 0.437500 1.000000
vt 0.437500 0.968750
vt 0.000000 1.000000
vt 0.000000 0.562500
vt 0.437500 1.000000
vt 0.437500 0.562500
vt 0.062500 0.937500
vt 0.062500 0.062500
vt 0.937500 0.937500
vt 0.937500 0.062500
vn 1.0000 0.0000 0.0000
vn -1.0000 0.0000 0.0000
vn 0.0000 1.0000 0.0000
vn 0.0000 -1.0000 -0.0000
vn 0.0000 -0.0000 1.0000
vn 0.0000 0.0000 -1.0000
usemtl none
s 1
f 17/48/13 18/49/13 19/50/13
f 18/49/13 20/51/13 19/50/13
f 21/52/14 22/53/14 23/54/14
f 22/53/14 24/55/14 23/54/14
f 21/52/15 23/56/15 19/57/15
f 23/56/15 17/58/15 19/57/15
f 24/59/16 22/60/16 18/61/16
f 22/60/16 20/62/16 18/61/16
f 23/63/17 24/64/17 17/65/17
f 24/64/17 18/66/17 17/65/17
usemtl m_1
f 19/67/18 20/68/18 21/69/18
f 20/68/18 22/70/18 21/69/18
o right
v -0.437500 0.937500 0.500000
v -0.437500 0.062500 0.500000
v -0.437500 0.937500 0.250000
v -0.437500 0.062500 0.250000
v -0.500000 0.937500 0.250000
v -0.500000 0.062500 0.250000
v -0.500000 0.937500 0.500000
v -0.500000 0.062500 0.500000
vt 0.000000 1.000000
vt 0.000000 0.562500
vt 0.125000 1.000000
vt 0.125000 0.562500
vt 0.000000 1.000000
vt 0.000000 0.875000
vt 0.031250 1.000000
vt 0.031250 0.875000
vt 0.000000 1.000000
vt 0.000000 0.875000
vt 0.031250 1.000000
vt 0.031250 0.875000
vt 0.000000 0.937500
vt 0.000000 0.062500
vt 0.125000 0.937500
vt 0.125000 0.062500
vt 0.000000 0.937500
vt 0.000000 0.062500
vt 0.062500 0.937500
vt 0.062500 0.062500
vt 0.937500 0.937500
vt 0.937500 0.062500
vt 1.000000 0.937500
vt 1.000000 0.062500
vn 1.0000 0.0000 0.0000
vn 0.0000 1.0000 0.0000
vn 0.0000 -1.0000 -0.0000
vn -1.0000 0.0000 0.0000
vn 0.0000 -0.0000 1.0000
vn 0.0000 0.0000 -1.0000
usemtl none
s 1
f 25/71/19 26/72/19 27/73/19
f 26/72/19 28/74/19 27/73/19
f 29/75/20 31/76/20 27/77/20
f 31/76/20 25/78/20 27/77/20
f 32/79/21 30/80/21 26/81/21
f 30/80/21 28/82/21 26/81/21
usemtl m_3
f 29/83/22 30/84/22 31/85/22
f 30/84/22 32/86/22 31/85/22
f 31/87/23 32/88/23 25/89/23
f 32/88/23 26/90/23 25/89/23
usemtl m_1
f 27/91/24 28/92/24 29/93/24
f 28/92/24 30/94/24 29/93/24
o top
v 0.500000 1.000000 0.500000
v 0.500000 0.937500 0.500000
v 0.500000 1.000000 0.250000
v 0.500000 0.937500 0.250000
v -0.500000 1.000000 0.250000
v -0.500000 0.937500 0.250000
v -0.500000 1.000000 0.500000
v -0.500000 0.937500 0.500000
vt 0.000000 1.000000
vt 0.000000 0.968750
vt 0.125000 1.000000
vt 0.125000 0.968750
vt 0.000000 1.000000
vt 0.000000 0.968750
vt 0.125000 1.000000
vt 0.125000 0.968750
vt 0.000000 1.000000
vt 0.000000 0.937500
vt 1.000000 1.000000
vt 1.000000 0.937500
vt 0.000000 0.125000
vt 0.000000 0.000000
vt 1.000000 0.125000
vt 1.000000 0.000000
vt 0.000000 1.000000
vt 0.000000 0.875000
vt 0.500000 1.000000
vt 0.500000 0.875000
vt 0.000000 1.000000
vt 0.000000 0.937500
vt 1.000000 1.000000
vt 1.000000 0.937500
vn 1.0000 0.0000 0.0000
vn -1.0000 0.0000 0.0000
vn 0.0000 0.0000 1.0000
vn 0.0000 1.0000 0.0000
vn 0.0000 -1.0000 0.0000
vn 0.0000 0.0000 -1.0000
usemtl m_3
s 1
f 33/95/25 34/96/25 35/97/25
f 34/96/25 36/98/25 35/97/25
f 37/99/26 38/100/26 39/101/26
f 38/100/26 40/102/26 39/101/26
f 39/103/27 40/104/27 33/105/27
f 40/104/27 34/106/27 33/105/27
usemtl m_2
f 37/107/28 39/108/28 35/109/28
f 39/108/28 33/110/28 35/109/28
usemtl none
f 40/111/29 38/112/29 34/113/29
f 38/112/29 36/114/29 34/113/29
usemtl m_1
f 35/115/30 36/116/30 37/117/30
f 36/116/30 38/118/30 37/117/30
o middle_shelf
v 0.500000 0.562500 0.250000
v 0.500000 0.500000 0.250000
v 0.500000 0.562500 0.000000
v 0.500000 0.500000 0.000000
v -0.500000 0.562500 0.000000
v -0.500000 0.500000 0.000000
v -0.500000 0.562500 0.250000
v -0.500000 0.500000 0.250000
vt 0.062500 0.937500
vt 0.062500 0.906250
vt 0.187500 0.937500
vt 0.187500 0.906250
vt 0.062500 0.937500
vt 0.062500 0.906250
vt 0.187500 0.937500
vt 0.187500 0.906250
vt 0.000000 0.812500
vt 0.000000 0.750000
vt 1.000000 0.812500
vt 1.000000 0.750000
vt 0.000000 0.562500
vt 0.000000 0.437500
vt 1.000000 0.562500
vt 1.000000 0.437500
vt 0.000000 0.562500
vt 0.000000 0.437500
vt 1.000000 0.562500
vt 1.000000 0.437500
vt 0.000000 1.000000
vt 0.000000 0.968750
vt 0.500000 1.000000
vt 0.500000 0.968750
vn 1.0000 0.0000 0.0000
vn -1.0000 0.0000 0.0000
vn 0.0000 0.0000 -1.0000
vn 0.0000 1.0000 0.0000
vn 0.0000 -1.0000 -0.0000
vn 0.0000 0.0000 1.0000
usemtl m_1
s 1
f 41/119/31 42/120/31 43/121/31
f 42/120/31 44/122/31 43/121/31
f 45/123/32 46/124/32 47/125/32
f 46/124/32 48/126/32 47/125/32
f 43/127/33 44/128/33 45/129/33
f 44/128/33 46/130/33 45/129/33
usemtl m_4
f 45/131/34 47/132/34 43/133/34
f 47/132/34 41/134/34 43/133/34
f 48/135/35 46/136/35 42/137/35
f 46/136/35 44/138/35 42/137/35
usemtl none
f 47/139/36 48/140/36 41/141/36
f 48/140/36 42/142/36 41/141/36
o cube
v 0.031250 1.000000 0.250000
v 0.031250 0.062500 0.250000
v 0.031250 1.000000 0.000000
v 0.031250 0.062500 0.000000
v -0.031250 1.000000 0.000000
v -0.031250 0.062500 0.000000
v -0.031250 1.000000 0.250000
v -0.031250 0.062500 0.250000
vt 0.062500 0.937500
vt 0.062500 0.468750
vt 0.187500 0.937500
vt 0.187500 0.468750
vt 0.062500 0.937500
vt 0.062500 0.468750
vt 0.187500 0.937500
vt 0.187500 0.468750
vt 0.062500 0.812500
vt 0.093750 0.937500
vt 0.093750 0.812500
vt 0.062500 0.937500
vt 0.062500 0.468750
vt 0.093750 0.937500
vt 0.093750 0.468750
vt 0.000000 1.000000
vt 0.000000 0.875000
vt 0.031250 1.000000
vt 0.031250 0.875000
vt 0.000000 1.000000
vt 0.000000 0.531250
vt 0.031250 1.000000
vt 0.031250 0.531250
vn 1.0000 0.0000 0.0000
vn -1.0000 0.0000 0.0000
vn 0.0000 1.0000 0.0000
vn 0.0000 0.0000 -1.0000
vn 0.0000 -1.0000 -0.0000
vn 0.0000 -0.0000 1.0000
usemtl m_1
s 1
f 49/143/37 50/144/37 51/145/37
f 50/144/37 52/146/37 51/145/37
f 53/147/38 54/148/38 55/149/38
f 54/148/38 56/150/38 55/149/38
f 53/147/39 55/151/39 51/152/39
f 55/151/39 49/153/39 51/152/39
f 51/154/40 52/155/40 53/156/40
f 52/155/40 54/157/40 53/156/40
usemtl none
f 56/158/41 54/159/41 50/160/41
f 54/159/41 52/161/41 50/160/41
f 55/162/42 56/163/42 49/164/42
f 56/163/42 50/165/42 49/164/42
o left
v 0.500000 0.937500 0.500000
v 0.500000 0.062500 0.500000
v 0.500000 0.937500 0.250000
v 0.500000 0.062500 0.250000
v 0.437500 0.937500 0.250000
v 0.437500 0.062500 0.250000
v 0.437500 0.937500 0.500000
v 0.437500 0.062500 0.500000
vt 0.000000 0.937500
vt 0.000000 0.062500
vt 0.125000 0.937500
vt 0.125000 0.062500
vt 0.000000 0.937500
vt 0.000000 0.062500
vt 0.062500 0.937500
vt 0.062500 0.062500
vt 0.000000 1.000000
vt 0.000000 0.562500
vt 0.125000 1.000000
vt 0.125000 0.562500
vt 0.000000 0.875000
vt 0.031250 1.000000
vt 0.031250 0.875000
vt 0.000000 1.000000
vt 0.000000 0.875000
vt 0.031250 1.000000
vt 0.031250 0.875000
vt 0.000000 0.937500
vt 0.000000 0.062500
vt 0.062500 0.937500
vt 0.062500 0.062500
vn 1.0000 0.0000 0.0000
vn 0.0000 -0.0000 1.0000
vn -1.0000 0.0000 0.0000
vn 0.0000 1.0000 0.0000
vn 0.0000 -1.0000 -0.0000
vn 0.0000 0.0000 -1.0000
usemtl m_3
s 1
f 57/166/43 58/167/43 59/168/43
f 58/167/43 60/169/43 59/168/43
f 63/170/44 64/171/44 57/172/44
f 64/171/44 58/173/44 57/172/44
usemtl none
f 61/174/45 62/175/45 63/176/45
f 62/175/45 64/177/45 63/176/45
f 61/174/46 63/178/46 59/179/46
f 63/178/46 57/180/46 59/179/46
f 64/181/47 62/182/47 58/183/47
f 62/182/47 60/184/47 58/183/47
usemtl m_1
f 59/185/48 60/186/48 61/187/48
f 60/186/48 62/188/48 61/187/48
